# xmcd
#
# Track frame offsets:
#	150
#	16462
#	34242
#	53245
#	89647
#	107810
#	130312
#	160997
#	178462
#
# Disc length: 2803 seconds
#
# Revision: 3
# Processed by: cddbd v1.5PL3 Copyright (c) Steve Scherf et al.
# Submitted via: EasyCDDAExtractor 5.1.0
#
DISCID=800af109
DTITLE=Joe Cocker - Live in LA
DYEAR=1994
DGENRE=R&B
TTITLE0=Dear Landlord
TTITLE1=Early in the Mornin'
TTITLE2=Didn't you know you've got to cry sometime?
TTITLE3=St. James Infirmary
TTITLE4=Hitchcock Railway
TTITLE5=Midnight Rider
TTITLE6=What kind of man are you?
TTITLE7=High time we went
TTITLE8=Love the one you're with
EXTD=
EXTT0=
EXTT1=
EXTT2=
EXTT3=
EXTT4=
EXTT5=
EXTT6=
EXTT7=
EXTT8=
PLAYORDER=
